<svg width="1200" height="760" viewBox="0 0 1200 760" fill="none" xmlns="http://www.w3.org/2000/svg">
  <defs>
    <linearGradient id="bg" x1="160" y1="60" x2="1080" y2="700" gradientUnits="userSpaceOnUse">
      <stop stop-color="#071A2E"/>
      <stop offset="1" stop-color="#1E3A8A"/>
    </linearGradient>
  </defs>
  <rect width="1200" height="760" rx="34" fill="url(#bg)"/>
  <rect x="88" y="88" width="1024" height="584" rx="26" fill="#0F172A" stroke="#334155"/>
  <rect x="132" y="128" width="260" height="20" rx="10" fill="#64748B"/>
  <rect x="132" y="174" width="936" height="212" rx="20" fill="#111827" stroke="#334155"/>
  <polyline points="172,336 280,262 392,296 508,222 624,268 736,210 852,246 966,188" stroke="#38BDF8" stroke-width="8" fill="none" stroke-linecap="round" stroke-linejoin="round"/>
  <circle cx="392" cy="296" r="10" fill="#38BDF8"/>
  <circle cx="624" cy="268" r="10" fill="#38BDF8"/>
  <circle cx="852" cy="246" r="10" fill="#38BDF8"/>
  <rect x="132" y="418" width="292" height="214" rx="18" fill="#111827" stroke="#334155"/>
  <rect x="452" y="418" width="292" height="214" rx="18" fill="#111827" stroke="#334155"/>
  <rect x="772" y="418" width="292" height="214" rx="18" fill="#111827" stroke="#334155"/>
  <rect x="170" y="458" width="220" height="14" rx="7" fill="#475569"/>
  <rect x="170" y="492" width="180" height="14" rx="7" fill="#334155"/>
  <rect x="490" y="456" width="218" height="84" rx="14" fill="#1E3A8A" fill-opacity="0.45"/>
  <rect x="806" y="456" width="224" height="34" rx="17" fill="#1D4ED8"/>
  <rect x="806" y="512" width="200" height="14" rx="7" fill="#334155"/>
</svg>
