<svg width="1200" height="760" viewBox="0 0 1200 760" fill="none" xmlns="http://www.w3.org/2000/svg">
  <defs>
    <linearGradient id="bg" x1="120" y1="40" x2="1080" y2="720" gradientUnits="userSpaceOnUse">
      <stop stop-color="#0F172A"/>
      <stop offset="1" stop-color="#1F2937"/>
    </linearGradient>
  </defs>
  <rect width="1200" height="760" rx="34" fill="url(#bg)"/>
  <rect x="94" y="84" width="1012" height="592" rx="26" fill="#111827" stroke="#334155"/>
  <rect x="140" y="132" width="300" height="18" rx="9" fill="#64748B"/>
  <rect x="140" y="176" width="920" height="450" rx="20" fill="#0B1221" stroke="#334155"/>
  <rect x="188" y="226" width="370" height="352" rx="18" fill="#111827" stroke="#334155"/>
  <rect x="596" y="226" width="416" height="88" rx="16" fill="#1E293B" stroke="#475569"/>
  <rect x="596" y="334" width="416" height="88" rx="16" fill="#1E293B" stroke="#475569"/>
  <rect x="596" y="442" width="416" height="88" rx="16" fill="#1E293B" stroke="#475569"/>
  <rect x="230" y="270" width="286" height="14" rx="7" fill="#475569"/>
  <rect x="230" y="304" width="250" height="14" rx="7" fill="#334155"/>
  <rect x="230" y="360" width="210" height="42" rx="21" fill="#1D4ED8"/>
  <rect x="638" y="258" width="226" height="14" rx="7" fill="#94A3B8"/>
  <rect x="638" y="366" width="190" height="14" rx="7" fill="#94A3B8"/>
  <rect x="638" y="474" width="216" height="14" rx="7" fill="#94A3B8"/>
</svg>
